<svg width="113" height="41" viewBox="0 0 113 41" fill="none" xmlns="http://www.w3.org/2000/svg">
<g clip-path="url(#clip0_90_364)">
<path d="M16.8496 23.922L22.7197 20.5109L28.7847 24.0109L22.9146 27.422L16.8496 23.922Z" fill="#FDEFE6" stroke="black" stroke-width="0.5" stroke-linejoin="round"/>
<path d="M22.7202 19.9548C22.8174 19.9549 22.9128 19.9806 22.9971 20.0291L29.063 23.5291C29.1474 23.5777 29.2173 23.6474 29.2661 23.7317C29.3149 23.816 29.3407 23.9117 29.3408 24.009C29.3408 24.1062 29.3155 24.2017 29.2671 24.2859C29.2187 24.3701 29.1489 24.4401 29.0649 24.489L23.1948 27.9011C23.1102 27.9501 23.0143 27.9758 22.9165 27.9758C22.8187 27.9758 22.7228 27.9501 22.6382 27.9011L16.5723 24.4011C16.4882 24.3523 16.4182 24.2822 16.3696 24.198C16.321 24.1138 16.2951 24.0184 16.2949 23.9212C16.2947 23.8238 16.3202 23.7277 16.3687 23.6433C16.4171 23.5589 16.4871 23.4886 16.5713 23.4397L22.4409 20.0291C22.5257 19.98 22.6223 19.9542 22.7202 19.9548ZM27.6782 24.0139L22.7202 21.1521L17.957 23.9197L22.9141 26.782L27.6782 24.0139Z" fill="black" stroke="black" stroke-width="0.5"/>
<path d="M22.917 27.5317L28.7866 24.1211L28.7656 31.2271L22.896 34.6382L22.917 27.5317Z" fill="#FDEFE6" stroke="black" stroke-width="0.5" stroke-linejoin="round"/>
<path d="M28.7856 23.5651C28.8828 23.5652 28.9782 23.5904 29.0625 23.6388C29.147 23.6879 29.2175 23.7586 29.2661 23.8434C29.3147 23.9282 29.3401 24.024 29.3398 24.1217L29.3189 31.2282C29.3186 31.325 29.2931 31.4197 29.2446 31.5036C29.1962 31.5874 29.1263 31.6576 29.0425 31.7062L23.1729 35.1178C23.0882 35.1667 22.9918 35.1925 22.894 35.1925C22.7963 35.1925 22.7004 35.1667 22.6157 35.1178C22.5312 35.0689 22.4612 34.9988 22.4126 34.9142C22.364 34.8296 22.3386 34.7335 22.3389 34.6359L22.3589 27.5299C22.3592 27.433 22.3847 27.338 22.4331 27.254C22.4815 27.17 22.5511 27.0998 22.6348 27.0509L28.5049 23.6398C28.5901 23.5901 28.687 23.5645 28.7856 23.5651ZM28.2109 30.9059L28.2275 25.0861L23.4697 27.8507L23.4526 33.671L28.2109 30.9059Z" fill="black" stroke="black" stroke-width="0.5"/>
<path d="M16.8955 7.83508L16.8506 23.8878L22.9165 27.4371L22.8955 34.6368L16.8296 31.088L10.6455 27.5157L10.7109 4.21594L16.8955 7.83508Z" fill="#FDEFE6" stroke="black" stroke-width="0.5" stroke-linejoin="round"/>
<path d="M10.7119 3.66101C10.8094 3.66077 10.9055 3.68722 10.9893 3.73718L17.1729 7.35291C17.258 7.40288 17.3287 7.4746 17.3774 7.56043C17.4262 7.64626 17.4518 7.74344 17.4512 7.84216L17.4072 23.5609L23.1939 26.9462C23.2791 26.9961 23.3496 27.0674 23.3984 27.1532C23.4472 27.239 23.4729 27.3362 23.4722 27.4349L23.4522 34.6351C23.4518 34.7334 23.4259 34.8297 23.377 34.9149C23.328 35.0001 23.2575 35.0712 23.1729 35.121C23.0888 35.1702 22.9934 35.1962 22.896 35.1962C22.7986 35.1962 22.7032 35.1702 22.6191 35.121L16.5532 31.5741L10.3711 28.0053C10.2856 27.9553 10.2147 27.8837 10.1655 27.7977C10.1164 27.7117 10.0904 27.6141 10.0908 27.515L10.1563 4.22498C10.1564 4.12695 10.1822 4.03073 10.231 3.94568C10.2797 3.86063 10.3496 3.78982 10.4341 3.74011C10.518 3.68938 10.6139 3.662 10.7119 3.66101ZM16.3398 8.16101L11.2642 5.19324L11.2022 27.183L17.1021 30.5922L22.3398 33.6552L22.3569 27.7553L16.5698 24.371C16.4847 24.321 16.4145 24.2498 16.3657 24.1639C16.3169 24.0781 16.2914 23.9809 16.292 23.8822L16.3398 8.16101Z" fill="black" stroke="black" stroke-width="0.5"/>
<path d="M16.8945 7.78577L22.7646 4.37512L22.7197 20.2159L16.8496 23.6271L16.8945 7.78577Z" fill="#FDEFE6" stroke="black" stroke-width="0.5" stroke-linejoin="round"/>
<path d="M22.7651 3.82007C22.8628 3.82008 22.9586 3.84567 23.043 3.89478C23.1277 3.94346 23.1982 4.01374 23.2471 4.09839C23.2959 4.18304 23.3216 4.27899 23.3213 4.37671L23.2759 20.218C23.2755 20.3151 23.2498 20.4104 23.2012 20.4944C23.1526 20.5784 23.083 20.6483 22.999 20.697L17.1289 24.1082C17.0443 24.1571 16.9484 24.1829 16.8506 24.1829C16.7528 24.1829 16.6569 24.1571 16.5723 24.1082C16.4878 24.0593 16.4173 23.9887 16.3687 23.9041C16.32 23.8194 16.2946 23.7233 16.2949 23.6257L16.3398 7.78491C16.3399 7.6879 16.3656 7.59261 16.4141 7.50855C16.4625 7.42448 16.5323 7.35459 16.6162 7.30591L22.4858 3.89478C22.5705 3.84545 22.6671 3.81986 22.7651 3.82007ZM22.165 19.8958L22.2061 5.34107L17.4482 8.10571L17.4072 22.6599L22.165 19.8958Z" fill="black" stroke="black" stroke-width="0.5"/>
<path d="M10.7109 4.21619L16.5811 0.805054L22.7646 4.37488L16.896 7.78601L10.7109 4.21619Z" fill="#FDEFE6" stroke="black" stroke-width="0.5" stroke-linejoin="round"/>
<path d="M16.5806 0.250012C16.6778 0.250131 16.7736 0.275858 16.8579 0.324231L23.0415 3.89503C23.1259 3.94355 23.1963 4.0134 23.2451 4.09767C23.2939 4.18194 23.3198 4.27763 23.3198 4.37501C23.32 4.4722 23.2945 4.56762 23.2461 4.65187C23.1976 4.73612 23.1275 4.80622 23.0435 4.85499L17.1738 8.26612C17.0892 8.31521 16.9928 8.34083 16.895 8.34083C16.7972 8.34083 16.7013 8.31521 16.6167 8.26612L10.4316 4.6963C10.3474 4.64766 10.2776 4.57744 10.229 4.49318C10.1804 4.40892 10.1547 4.31312 10.1548 4.21583C10.1546 4.1185 10.1801 4.02291 10.2285 3.93849C10.277 3.85406 10.3465 3.78381 10.4307 3.73488L16.3008 0.324231C16.3859 0.275128 16.4823 0.249367 16.5806 0.250012ZM21.6567 4.37697L16.5815 1.44728L11.8188 4.21486L16.8945 7.14601L21.6567 4.37697Z" fill="black" stroke="black" stroke-width="0.5"/>
<path d="M7.01025 29.2521L12.8804 25.8409L18.9463 29.3409L13.0762 32.7521L7.01025 29.2521Z" fill="#FDEFE6" stroke="black" stroke-width="0.5" stroke-linejoin="round"/>
<path d="M12.8804 25.2849C12.9777 25.2851 13.0731 25.3112 13.1572 25.3601L19.2231 28.8601C19.3073 28.9089 19.3772 28.979 19.4258 29.0632C19.4744 29.1475 19.4998 29.2428 19.5 29.3401C19.5 29.4373 19.4747 29.5327 19.4263 29.6169C19.3778 29.7012 19.3081 29.7712 19.2241 29.8201L13.354 33.2322C13.2694 33.2812 13.1735 33.3069 13.0757 33.3069C12.9779 33.3069 12.882 33.2812 12.7974 33.2322L6.73242 29.7322C6.64812 29.6835 6.57808 29.6133 6.5293 29.5291C6.48051 29.4448 6.45437 29.3495 6.4541 29.2522C6.45389 29.1547 6.47969 29.0588 6.52832 28.9744C6.57696 28.8899 6.64705 28.8195 6.73145 28.7708L12.6001 25.3601C12.6851 25.3107 12.782 25.2846 12.8804 25.2849ZM17.8384 29.344L12.8813 26.4822L8.11817 29.2498L13.0762 32.1121L17.8384 29.344Z" fill="black" stroke="black" stroke-width="0.5"/>
<path d="M13.0771 32.8617L18.9468 29.4501L18.9272 36.556L13.0571 39.9672L13.0771 32.8617Z" fill="#FDEFE6" stroke="black" stroke-width="0.5" stroke-linejoin="round"/>
<path d="M18.9448 28.895C19.0425 28.895 19.1383 28.9206 19.2227 28.9697C19.3074 29.0184 19.3779 29.0887 19.4268 29.1733C19.4756 29.258 19.5013 29.3539 19.501 29.4517L19.481 36.5581C19.4806 36.6551 19.4547 36.75 19.4063 36.834C19.3578 36.918 19.2888 36.9882 19.2051 37.0371L13.335 40.4478C13.2505 40.4967 13.1543 40.5225 13.0566 40.5225C12.959 40.5225 12.8633 40.4967 12.7788 40.4478C12.6941 40.3988 12.624 40.3285 12.5752 40.2437C12.5264 40.1588 12.5007 40.0627 12.501 39.9648L12.522 32.8589C12.5219 32.7618 12.5473 32.6666 12.5957 32.5825C12.6442 32.4984 12.7139 32.4285 12.7979 32.3799L18.668 28.9688C18.7522 28.9202 18.8476 28.895 18.9448 28.895ZM18.3711 36.2358L18.3877 30.416L13.6299 33.1807L13.6128 39L18.3711 36.2358Z" fill="black" stroke="black" stroke-width="0.5"/>
<path d="M7.05469 13.166L7.01074 29.2197L13.0757 32.769L13.0547 39.9688L6.98975 36.4199L0.804688 32.8467L0.870117 9.54688L7.05469 13.166Z" fill="#FDEFE6" stroke="black" stroke-width="0.5" stroke-linejoin="round"/>
<path d="M0.871096 8.99097C0.968747 8.99107 1.06496 9.01714 1.14942 9.06616L7.33301 12.6829C7.41801 12.7328 7.48881 12.8043 7.5376 12.8899C7.58639 12.9755 7.61176 13.0726 7.61133 13.1711L7.56739 28.8909L13.355 32.2751C13.4397 32.3255 13.51 32.3969 13.5586 32.4827C13.6072 32.5684 13.6327 32.6653 13.6323 32.7639L13.6113 39.9641C13.6113 40.0623 13.5854 40.1587 13.5366 40.2439C13.4879 40.3291 13.4176 40.4002 13.333 40.45C13.2488 40.4991 13.1532 40.5251 13.0557 40.5251C12.9582 40.5251 12.8626 40.4991 12.7783 40.45L6.71338 36.9031L0.531252 33.3342C0.445793 33.2842 0.37482 33.2122 0.325686 33.1262C0.276552 33.0402 0.250704 32.943 0.250979 32.844L0.316408 9.55493C0.316227 9.45669 0.341361 9.36042 0.390139 9.27515C0.438917 9.18987 0.509468 9.11874 0.59424 9.06909C0.677976 9.01888 0.773463 8.99183 0.871096 8.99097ZM6.49903 13.491L1.42334 10.5222L1.36133 32.512L7.26123 35.9202L12.499 38.9832L12.5161 33.0833L6.72901 29.698C6.64408 29.648 6.57368 29.5766 6.5249 29.491C6.47613 29.4053 6.45084 29.3087 6.45117 29.2102L6.49903 13.491Z" fill="black" stroke="black" stroke-width="0.5"/>
<path d="M7.05518 13.1157L12.9253 9.70508L12.8804 25.5449L7.01025 28.957L7.05518 13.1157Z" fill="#FDEFE6" stroke="black" stroke-width="0.5" stroke-linejoin="round"/>
<path d="M12.9253 9.15003C13.0226 9.15022 13.118 9.1758 13.2022 9.22474C13.2868 9.27347 13.3571 9.34369 13.4058 9.42835C13.4544 9.51301 13.4795 9.60903 13.479 9.70667L13.4351 25.548C13.4346 25.645 13.4089 25.7403 13.3604 25.8243C13.3118 25.9084 13.2421 25.9782 13.1582 26.027L7.28809 29.4381C7.20355 29.4874 7.10762 29.5133 7.00977 29.5133C6.91191 29.5133 6.81599 29.4874 6.73145 29.4381C6.64672 29.3894 6.57617 29.3192 6.52735 29.2345C6.47852 29.1499 6.45284 29.0534 6.45313 28.9557L6.49805 13.1149C6.49838 13.0179 6.52435 12.923 6.57276 12.839C6.62116 12.755 6.6907 12.6848 6.77442 12.6359L12.644 9.22474C12.7294 9.17516 12.8266 9.14956 12.9253 9.15003ZM12.3252 25.2257L12.3672 10.672L7.61035 13.4371L7.56836 27.9909L12.3252 25.2257Z" fill="black" stroke="black" stroke-width="0.5"/>
<path d="M0.871094 9.54602L6.74121 6.13489L12.9258 9.70471L7.05615 13.1158L0.871094 9.54602Z" fill="#FDEFE6" stroke="black" stroke-width="0.5" stroke-linejoin="round"/>
<path d="M6.74072 5.57997C6.83793 5.58004 6.93377 5.60577 7.01807 5.65418L13.2026 9.22401C13.2868 9.27283 13.357 9.34293 13.4058 9.42713C13.4545 9.51133 13.4805 9.60669 13.481 9.70399C13.481 9.80129 13.4552 9.89694 13.4067 9.98133C13.3583 10.0657 13.2886 10.1359 13.2046 10.1849L7.33496 13.5961C7.25054 13.6452 7.1543 13.6708 7.05664 13.6708C6.95898 13.6708 6.86323 13.6452 6.77881 13.5961L0.59375 10.0263C0.509381 9.97766 0.439421 9.90738 0.390625 9.82313C0.341829 9.73888 0.316082 9.64315 0.315918 9.54579C0.315805 9.44847 0.341215 9.35285 0.389649 9.26844C0.438082 9.18403 0.507722 9.11384 0.591797 9.06483L6.46191 5.65418C6.54669 5.60516 6.6428 5.5794 6.74072 5.57997ZM11.8169 9.70692L6.7417 6.77723L1.979 9.54481L7.05371 12.476L11.8169 9.70692Z" fill="black" stroke="black" stroke-width="0.5"/>
<path d="M49.5192 24.305V26.985H40.6792V12.245H43.6992V24.305H49.5192ZM50.5792 13.685C50.5746 13.4651 50.6158 13.2466 50.7002 13.0435C50.7846 12.8404 50.9102 12.657 51.0692 12.505C51.225 12.349 51.4107 12.226 51.6152 12.1435C51.8197 12.061 52.0387 12.0207 52.2592 12.025C52.4751 12.0215 52.6894 12.0623 52.8889 12.1448C53.0884 12.2274 53.2689 12.35 53.4192 12.505C53.5757 12.6583 53.6991 12.8422 53.7817 13.0452C53.8643 13.2481 53.9043 13.4659 53.8992 13.685C53.9021 13.9023 53.861 14.1179 53.7786 14.319C53.6961 14.52 53.5739 14.7023 53.4192 14.855C53.2704 15.0126 53.0904 15.1375 52.8907 15.2219C52.691 15.3062 52.476 15.3482 52.2592 15.345C52.0387 15.3492 51.8197 15.3089 51.6152 15.2264C51.4107 15.144 51.225 15.021 51.0692 14.865C50.9102 14.713 50.7846 14.5296 50.7002 14.3265C50.6158 14.1233 50.5746 13.9049 50.5792 13.685ZM53.6792 17.025V26.985H50.8192V17.025H53.6792ZM65.4392 17.025L61.2792 26.985H58.4792L54.5592 17.025H57.6392L59.9592 23.585L62.4992 17.025H65.4392ZM75.3192 22.985H67.9392C67.9568 23.2628 68.037 23.5331 68.1738 23.7755C68.3106 24.0179 68.5005 24.2263 68.7292 24.385C69.2038 24.6863 69.7573 24.8394 70.3192 24.825C70.7802 24.8601 71.2411 24.7547 71.641 24.5226C72.0408 24.2905 72.361 23.9427 72.5592 23.525L74.9392 24.445C74.5936 25.3087 73.9711 26.0333 73.1692 26.505C72.3057 27.0099 71.3193 27.266 70.3192 27.245C69.6242 27.2522 68.9345 27.1231 68.2892 26.865C67.6871 26.6237 67.1422 26.2592 66.6892 25.795C66.2339 25.3214 65.8801 24.76 65.6492 24.145C65.3947 23.4606 65.2692 22.7351 65.2792 22.005C65.2699 21.2717 65.3953 20.543 65.6492 19.855C65.8798 19.234 66.2336 18.6659 66.6892 18.185C67.1424 17.7139 67.6914 17.3456 68.2992 17.105C68.9548 16.8462 69.6544 16.7172 70.3592 16.725C71.0576 16.716 71.7509 16.8451 72.3992 17.105C72.9931 17.3451 73.5285 17.71 73.9692 18.175C74.4152 18.6559 74.7558 19.2248 74.9692 19.845C75.2093 20.5395 75.3277 21.2702 75.3192 22.005V22.985ZM72.4192 21.025C72.4146 20.7499 72.3557 20.4784 72.2458 20.2261C72.136 19.9739 71.9774 19.7458 71.7792 19.555C71.3637 19.2137 70.8362 19.0391 70.2992 19.065C70.0193 19.0416 69.7375 19.0739 69.4701 19.1599C69.2027 19.2459 68.955 19.384 68.7412 19.5662C68.5274 19.7484 68.3517 19.9711 68.2244 20.2214C68.0971 20.4718 68.0205 20.7449 67.9992 21.025H72.4192ZM85.8592 24.305V26.985H77.0192V12.245H80.0392V24.305H85.8592ZM86.9192 13.685C86.9146 13.4651 86.9558 13.2466 87.0402 13.0435C87.1246 12.8404 87.2502 12.657 87.4092 12.505C87.565 12.349 87.7507 12.226 87.9552 12.1435C88.1597 12.061 88.3787 12.0207 88.5992 12.025C88.8151 12.0215 89.0294 12.0623 89.2289 12.1448C89.4284 12.2274 89.6089 12.35 89.7592 12.505C89.9157 12.6583 90.0391 12.8422 90.1217 13.0452C90.2043 13.2481 90.2443 13.4659 90.2392 13.685C90.2421 13.9023 90.201 14.1179 90.1186 14.319C90.0361 14.52 89.9138 14.7023 89.7592 14.855C89.6104 15.0126 89.4304 15.1375 89.2307 15.2219C89.031 15.3062 88.816 15.3482 88.5992 15.345C88.3787 15.3492 88.1597 15.3089 87.9552 15.2264C87.7507 15.144 87.565 15.021 87.4092 14.865C87.2502 14.713 87.1246 14.5296 87.0402 14.3265C86.9558 14.1233 86.9146 13.9049 86.9192 13.685ZM90.0192 17.025V26.985H87.1592V17.025H90.0192ZM101.479 20.845V26.985H98.6392V21.505C98.6814 21.1883 98.6492 20.8661 98.545 20.564C98.4408 20.262 98.2676 19.9884 98.0392 19.765C97.6789 19.4677 97.2263 19.3051 96.7592 19.305C96.2282 19.3085 95.7112 19.4761 95.2792 19.785C95.0345 19.9939 94.8459 20.2607 94.7306 20.5611C94.6153 20.8615 94.577 21.186 94.6192 21.505V26.985H91.7792V17.025H94.4792L94.5592 17.925C94.8639 17.5328 95.2678 17.229 95.7292 17.045C96.2517 16.8272 96.8132 16.7183 97.3792 16.725C97.9353 16.6865 98.4933 16.7635 99.0182 16.951C99.5431 17.1386 100.023 17.4328 100.429 17.815C100.795 18.2263 101.076 18.7056 101.256 19.2255C101.436 19.7454 101.512 20.2957 101.479 20.845ZM103.139 26.985V11.985H105.999V20.665L109.439 17.025H112.999L108.639 21.625L112.699 26.985H109.219L106.759 23.605L105.999 24.425V26.985H103.139Z" fill="black"/>
</g>
<defs>
<clipPath id="clip0_90_364">
<rect width="112.998" height="40.782" fill="white"/>
</clipPath>
</defs>
</svg>
